<svg width="20" height="20" viewBox="0 0 20 20" fill="none" xmlns="http://www.w3.org/2000/svg">
<path fill-rule="evenodd" clip-rule="evenodd" d="M15 17.5H5C3.61917 17.5 2.5 16.3808 2.5 15V5C2.5 3.61917 3.61917 2.5 5 2.5H15C16.3808 2.5 17.5 3.61917 17.5 5V15C17.5 16.3808 16.3808 17.5 15 17.5Z" stroke="#83909D" stroke-width="1.5" stroke-linecap="round" stroke-linejoin="round"/>
<path d="M8.32284 6.26046C8.89236 6.82998 8.89236 7.75335 8.32284 8.32286C7.75333 8.89237 6.82996 8.89237 6.26045 8.32286C5.69093 7.75334 5.69093 6.82997 6.26045 6.26046C6.82996 5.69095 7.75333 5.69095 8.32284 6.26046" stroke="#83909D" stroke-width="1.5" stroke-linecap="round" stroke-linejoin="round"/>
<path d="M17.5 8.42416C17.125 8.37083 16.7441 8.33333 16.3541 8.33333C11.9241 8.33333 8.33331 11.9242 8.33331 16.3542C8.33331 16.7442 8.37081 17.125 8.42415 17.5" stroke="#83909D" stroke-width="1.5" stroke-linecap="round" stroke-linejoin="round"/>
</svg>
