<svg width="20" height="20" viewBox="0 0 20 20" fill="none" xmlns="http://www.w3.org/2000/svg">
<rect width="20" height="20" rx="4" fill="#E1E7E9"/>
<path d="M6.356 6.35599C4.73132 7.08598 3.78505 8.80227 4.03494 10.5658C4.28483 12.3293 5.67067 13.7152 7.43419 13.965C9.19772 14.2149 10.914 13.2687 11.644 11.644" stroke="#242328" stroke-linecap="round" stroke-linejoin="round"/>
<path d="M6.35597 6.35599C5.66948 7.87133 5.9938 9.65348 7.17014 10.8298C8.34648 12.0062 10.1286 12.3305 11.644 11.644" stroke="#242328" stroke-linecap="round" stroke-linejoin="round"/>
<path d="M13.644 6.356C12.914 4.73132 11.1977 3.78505 9.43419 4.03494C7.67067 4.28483 6.28483 5.67067 6.03494 7.43419C5.78505 9.19772 6.73132 10.914 8.356 11.644" stroke="#242328" stroke-linecap="round" stroke-linejoin="round"/>
<path d="M13.644 6.35594C12.1286 5.66945 10.3465 5.99377 9.17014 7.17011C7.9938 8.34645 7.66948 10.1286 8.35597 11.6439" stroke="#242328" stroke-linecap="round" stroke-linejoin="round"/>
<path d="M8.35602 8.35603C9.08601 6.73135 10.8023 5.78508 12.5658 6.03497C14.3294 6.28486 15.7152 7.6707 15.9651 9.43422C16.215 11.1978 15.2687 12.914 13.644 13.644" stroke="#242328" stroke-linecap="round" stroke-linejoin="round"/>
<path d="M8.35602 8.356C9.87136 7.66951 11.6535 7.99383 12.8299 9.17017C14.0062 10.3465 14.3305 12.1287 13.644 13.644" stroke="#242328" stroke-linecap="round" stroke-linejoin="round"/>
<path d="M11.644 8.35605C12.3305 9.87139 12.0062 11.6535 10.8299 12.8299C9.65351 14.0062 7.87136 14.3305 6.35602 13.644" stroke="#242328" stroke-linecap="round" stroke-linejoin="round"/>
<path d="M11.644 8.35605C13.2687 9.08604 14.215 10.8023 13.9651 12.5659C13.7152 14.3294 12.3294 15.7152 10.5658 15.9651C8.8023 16.215 7.08601 15.2687 6.35602 13.644" stroke="#242328" stroke-linecap="round" stroke-linejoin="round"/>
</svg>
