<svg width="22" height="22" viewBox="0 0 22 22" fill="none" xmlns="http://www.w3.org/2000/svg">
<path fill-rule="evenodd" clip-rule="evenodd" d="M16.7974 18.5031H5.20258C4.28136 18.5031 3.53522 17.757 3.53522 16.8358V7.66527C3.53522 6.74405 4.28136 5.99791 5.20258 5.99791H16.7974C17.7186 5.99791 18.4648 6.74405 18.4648 7.66527V16.8358C18.4648 17.757 17.7178 18.5031 16.7974 18.5031Z" stroke="#83909D" stroke-width="1.5" stroke-linecap="round" stroke-linejoin="round"/>
<path d="M11 8.49896C12.1513 8.49896 13.0842 9.43185 13.0842 10.5832C13.0842 11.7345 12.1513 12.6674 11 12.6674C9.84866 12.6674 8.91577 11.7345 8.91577 10.5832C8.91577 9.43185 9.84866 8.49896 11 8.49896" stroke="#83909D" stroke-width="1.5" stroke-linecap="round" stroke-linejoin="round"/>
<path d="M14.7515 16.0021C14.6423 15.7278 14.4731 15.481 14.2563 15.2801V15.2801C13.8903 14.94 13.411 14.7516 12.9108 14.7516C12.0771 14.7516 9.92286 14.7516 9.08918 14.7516C8.58897 14.7516 8.11044 14.9408 7.74362 15.2801V15.2801C7.52686 15.481 7.35763 15.7278 7.24841 16.0021" stroke="#83909D" stroke-width="1.5" stroke-linecap="round" stroke-linejoin="round"/>
<path d="M4.98248 5.99791V5.16423C4.98248 4.24302 5.72863 3.49687 6.64984 3.49687H15.3493C16.2705 3.49687 17.0167 4.24302 17.0167 5.16423V5.99791" stroke="#83909D" stroke-width="1.5" stroke-linecap="round" stroke-linejoin="round"/>
</svg>
