<svg width="20" height="20" viewBox="0 0 20 20" fill="none" xmlns="http://www.w3.org/2000/svg">
<path fill-rule="evenodd" clip-rule="evenodd" d="M6.66669 3.33333L7.75002 1.97916C7.90835 1.78166 8.14752 1.66666 8.40085 1.66666H11.6C11.8534 1.66666 12.0925 1.78166 12.2509 1.97916L13.3334 3.33333V3.33333V4.16666C13.3334 4.62666 12.96 5 12.5 5H7.50002C7.04002 5 6.66669 4.62666 6.66669 4.16666V3.33333V3.33333H6.66669Z" stroke="#83909D" stroke-width="1.5" stroke-linecap="round" stroke-linejoin="round"/>
<path d="M6.66665 3.33334H4.99998C4.07915 3.33334 3.33331 4.07917 3.33331 5V15.8333C3.33331 16.7542 4.07915 17.5 4.99998 17.5H15C15.9208 17.5 16.6666 16.7542 16.6666 15.8333V5C16.6666 4.07917 15.9208 3.33334 15 3.33334H13.3333" stroke="#83909D" stroke-width="1.5" stroke-linecap="round" stroke-linejoin="round"/>
<path d="M6.66669 9.16667H13.3334" stroke="#83909D" stroke-width="1.5" stroke-linecap="round" stroke-linejoin="round"/>
<path d="M6.66669 13.3333H13.3334" stroke="#83909D" stroke-width="1.5" stroke-linecap="round" stroke-linejoin="round"/>
</svg>
