<svg width="26" height="26" viewBox="0 0 26 26" fill="none" xmlns="http://www.w3.org/2000/svg">
<path d="M10.6647 19.1901V19.6703C10.6647 20.2891 10.9105 20.8827 11.3481 21.3203C11.7857 21.7579 12.3793 22.0037 12.9981 22.0037H13C13.6191 22.004 14.213 21.7583 14.651 21.3207C15.0889 20.8831 15.3351 20.2894 15.3354 19.6703V19.1901" stroke="#242328" stroke-width="1.5" stroke-linecap="round" stroke-linejoin="round"/>
<path fill-rule="evenodd" clip-rule="evenodd" d="M18.5776 19.1901C19.6411 19.1901 20.5031 18.328 20.5031 17.2646V17.2646C20.5027 16.7244 20.2882 16.2064 19.9066 15.824L18.6274 14.5456V10.749C18.6274 7.64115 16.1079 5.1217 13 5.1217V5.1217C9.89212 5.1217 7.37267 7.64115 7.37267 10.749V14.5456L6.09339 15.824C5.71181 16.2064 5.49732 16.7244 5.49689 17.2646V17.2646C5.49689 18.328 6.35896 19.1901 7.42238 19.1901H18.5776V19.1901Z" stroke="#242328" stroke-width="1.5" stroke-linecap="round" stroke-linejoin="round"/>
<path d="M23.0255 3.99625L21.0247 5.33011" stroke="#242328" stroke-width="1.5" stroke-linecap="round" stroke-linejoin="round"/>
<path d="M24.0045 9.99874H22.025" stroke="#242328" stroke-width="1.5" stroke-linecap="round" stroke-linejoin="round"/>
<path d="M2.97455 3.99625L4.97538 5.33011" stroke="#242328" stroke-width="1.5" stroke-linecap="round" stroke-linejoin="round"/>
<path d="M1.99542 9.99874H3.97495" stroke="#242328" stroke-width="1.5" stroke-linecap="round" stroke-linejoin="round"/>
</svg>
