<svg width="20" height="20" viewBox="0 0 20 20" fill="none" xmlns="http://www.w3.org/2000/svg">
<path d="M8.05386 15.1584V15.5586C8.05386 16.0743 8.25873 16.5689 8.62341 16.9336C8.98808 17.2982 9.48269 17.5031 9.99841 17.5031H9.99998C10.5159 17.5033 11.0108 17.2986 11.3758 16.9339C11.7407 16.5692 11.9459 16.0745 11.9461 15.5586V15.1584" stroke="#83909D" stroke-width="1.5" stroke-linecap="round" stroke-linejoin="round"/>
<path fill-rule="evenodd" clip-rule="evenodd" d="M14.648 15.1584C15.5342 15.1584 16.2526 14.44 16.2526 13.5538V13.5538C16.2522 13.1036 16.0735 12.672 15.7555 12.3533L14.6894 11.288V8.12421C14.6894 5.53429 12.5899 3.43475 9.99998 3.43475V3.43475C7.41007 3.43475 5.31053 5.53429 5.31053 8.12421V11.288L4.24446 12.3533C3.92648 12.672 3.74774 13.1036 3.74738 13.5538V13.5538C3.74738 14.44 4.46577 15.1584 5.35195 15.1584H14.648V15.1584Z" stroke="#83909D" stroke-width="1.5" stroke-linecap="round" stroke-linejoin="round"/>
<path d="M18.3546 2.49686L16.6872 3.60841" stroke="#83909D" stroke-width="1.5" stroke-linecap="round" stroke-linejoin="round"/>
<path d="M19.1705 7.49893H17.5209" stroke="#83909D" stroke-width="1.5" stroke-linecap="round" stroke-linejoin="round"/>
<path d="M1.64542 2.49686L3.31278 3.60841" stroke="#83909D" stroke-width="1.5" stroke-linecap="round" stroke-linejoin="round"/>
<path d="M0.829498 7.49893H2.4791" stroke="#83909D" stroke-width="1.5" stroke-linecap="round" stroke-linejoin="round"/>
</svg>
