<svg width="20" height="20" viewBox="0 0 20 20" fill="none" xmlns="http://www.w3.org/2000/svg">
<path d="M3.33331 5.83333V4.16666C3.33331 3.70642 3.70641 3.33333 4.16665 3.33333H15.8333C16.2935 3.33333 16.6666 3.70642 16.6666 4.16666V5.83333" stroke="#83909D" stroke-width="1.5" stroke-linecap="round" stroke-linejoin="round"/>
<path fill-rule="evenodd" clip-rule="evenodd" d="M16.6667 5.83333H3.33333C2.8731 5.83333 2.5 6.20642 2.5 6.66666V15.8333C2.5 16.7538 3.24619 17.5 4.16667 17.5H15.8333C16.7538 17.5 17.5 16.7538 17.5 15.8333V6.66666C17.5 6.20642 17.1269 5.83333 16.6667 5.83333Z" stroke="#83909D" stroke-width="1.5" stroke-linecap="round" stroke-linejoin="round"/>
<path d="M13.3334 9.16667C13.3334 11.0076 11.841 12.5 10 12.5C8.15907 12.5 6.66669 11.0076 6.66669 9.16667" stroke="#83909D" stroke-width="1.5" stroke-linecap="round" stroke-linejoin="round"/>
</svg>
